<svg width="564" height="56" viewBox="0 0 564 56" fill="none" xmlns="http://www.w3.org/2000/svg">
<rect x="0.70105" y="0.711426" width="562.948" height="55.2371" rx="5" fill="white"/>
<path d="M422.844 47V41H423.734V41.9375H423.813C423.938 41.6172 424.139 41.3685 424.418 41.1914C424.697 41.0117 425.031 40.9219 425.422 40.9219C425.818 40.9219 426.147 41.0117 426.41 41.1914C426.676 41.3685 426.883 41.6172 427.031 41.9375H427.094C427.247 41.6276 427.478 41.3815 427.785 41.1992C428.092 41.0143 428.461 40.9219 428.891 40.9219C429.427 40.9219 429.866 41.0898 430.207 41.4258C430.548 41.7591 430.719 42.2786 430.719 42.9844V47H429.797V42.9844C429.797 42.5417 429.676 42.2253 429.434 42.0352C429.191 41.8451 428.906 41.75 428.578 41.75C428.156 41.75 427.829 41.8776 427.598 42.1328C427.366 42.3854 427.25 42.7057 427.25 43.0937V47H426.313V42.8906C426.313 42.5495 426.202 42.2747 425.98 42.0664C425.759 41.8555 425.474 41.75 425.125 41.75C424.885 41.75 424.661 41.8138 424.453 41.9414C424.247 42.069 424.081 42.2461 423.953 42.4727C423.828 42.6966 423.766 42.9557 423.766 43.25V47H422.844ZM432.404 49.25V41H433.295V41.9531H433.404C433.472 41.849 433.566 41.7161 433.686 41.5547C433.808 41.3906 433.982 41.2448 434.209 41.1172C434.438 40.987 434.748 40.9219 435.139 40.9219C435.644 40.9219 436.089 41.0482 436.475 41.3008C436.86 41.5534 437.161 41.9115 437.377 42.375C437.593 42.8385 437.701 43.3854 437.701 44.0156C437.701 44.651 437.593 45.2018 437.377 45.668C437.161 46.1315 436.861 46.4909 436.479 46.7461C436.096 46.9987 435.654 47.125 435.154 47.125C434.769 47.125 434.46 47.0612 434.229 46.9336C433.997 46.8034 433.818 46.6562 433.693 46.4922C433.568 46.3255 433.472 46.1875 433.404 46.0781H433.326V49.25H432.404ZM433.311 44C433.311 44.4531 433.377 44.8529 433.51 45.1992C433.643 45.543 433.837 45.8125 434.092 46.0078C434.347 46.2005 434.66 46.2969 435.029 46.2969C435.415 46.2969 435.736 46.1953 435.994 45.9922C436.255 45.7865 436.45 45.5104 436.58 45.1641C436.713 44.8151 436.779 44.4271 436.779 44C436.779 43.5781 436.714 43.1979 436.584 42.8594C436.456 42.5182 436.262 42.2487 436.002 42.0508C435.744 41.8503 435.42 41.75 435.029 41.75C434.654 41.75 434.339 41.8451 434.084 42.0352C433.829 42.2227 433.636 42.4857 433.506 42.8242C433.376 43.1602 433.311 43.5521 433.311 44ZM441.529 49.375C441.084 49.375 440.701 49.3177 440.381 49.2031C440.061 49.0911 439.794 48.9427 439.58 48.7578C439.369 48.5755 439.201 48.3802 439.076 48.1719L439.811 47.6563C439.894 47.7656 439.999 47.8906 440.127 48.0312C440.255 48.1745 440.429 48.2982 440.65 48.4023C440.874 48.5091 441.167 48.5625 441.529 48.5625C442.014 48.5625 442.413 48.4453 442.729 48.2109C443.044 47.9766 443.201 47.6094 443.201 47.1094V45.8906H443.123C443.055 46 442.959 46.1354 442.834 46.2969C442.712 46.4557 442.535 46.5977 442.303 46.7227C442.074 46.8451 441.764 46.9062 441.373 46.9062C440.889 46.9062 440.454 46.7917 440.068 46.5625C439.686 46.3333 439.382 46 439.158 45.5625C438.937 45.125 438.826 44.5937 438.826 43.9687C438.826 43.3542 438.934 42.819 439.15 42.3633C439.367 41.9049 439.667 41.5508 440.053 41.3008C440.438 41.0482 440.883 40.9219 441.389 40.9219C441.779 40.9219 442.089 40.987 442.318 41.1172C442.55 41.2448 442.727 41.3906 442.85 41.5547C442.975 41.7161 443.071 41.849 443.139 41.9531H443.232V41H444.123V47.1719C444.123 47.6875 444.006 48.1068 443.771 48.4297C443.54 48.7552 443.227 48.9935 442.834 49.1445C442.443 49.2982 442.008 49.375 441.529 49.375ZM441.498 46.0781C441.868 46.0781 442.18 45.9935 442.436 45.8242C442.691 45.6549 442.885 45.4115 443.018 45.0938C443.15 44.776 443.217 44.3958 443.217 43.9531C443.217 43.5208 443.152 43.1393 443.021 42.8086C442.891 42.4779 442.699 42.2187 442.443 42.0312C442.188 41.8437 441.873 41.75 441.498 41.75C441.107 41.75 440.782 41.849 440.521 42.0469C440.264 42.2448 440.07 42.5104 439.939 42.8438C439.812 43.1771 439.748 43.5469 439.748 43.9531C439.748 44.3698 439.813 44.7383 439.943 45.0586C440.076 45.3763 440.271 45.6263 440.529 45.8086C440.79 45.9883 441.113 46.0781 441.498 46.0781ZM447.576 47.1406C447.196 47.1406 446.851 47.069 446.541 46.9258C446.231 46.7799 445.985 46.5703 445.803 46.2969C445.62 46.0208 445.529 45.6875 445.529 45.2969C445.529 44.9531 445.597 44.6745 445.732 44.4609C445.868 44.2448 446.049 44.0755 446.275 43.9531C446.502 43.8307 446.752 43.7396 447.025 43.6797C447.301 43.6172 447.579 43.5677 447.857 43.5313C448.222 43.4844 448.518 43.4492 448.744 43.4258C448.973 43.3997 449.14 43.3568 449.244 43.2969C449.351 43.237 449.404 43.1328 449.404 42.9844V42.9531C449.404 42.5677 449.299 42.2682 449.088 42.0547C448.88 41.8411 448.563 41.7344 448.139 41.7344C447.699 41.7344 447.354 41.8307 447.104 42.0234C446.854 42.2161 446.678 42.4219 446.576 42.6406L445.701 42.3281C445.857 41.9635 446.066 41.6797 446.326 41.4766C446.589 41.2708 446.876 41.1276 447.186 41.0469C447.498 40.9635 447.805 40.9219 448.107 40.9219C448.3 40.9219 448.521 40.9453 448.771 40.9922C449.024 41.0365 449.268 41.1289 449.502 41.2695C449.739 41.4102 449.936 41.6224 450.092 41.9062C450.248 42.1901 450.326 42.5703 450.326 43.0469V47H449.404V46.1875H449.357C449.295 46.3177 449.191 46.457 449.045 46.6055C448.899 46.7539 448.705 46.8802 448.463 46.9844C448.221 47.0885 447.925 47.1406 447.576 47.1406ZM447.717 46.3125C448.081 46.3125 448.389 46.2409 448.639 46.0977C448.891 45.9544 449.081 45.7695 449.209 45.543C449.339 45.3164 449.404 45.0781 449.404 44.8281V43.9844C449.365 44.0312 449.279 44.0742 449.146 44.1133C449.016 44.1497 448.865 44.1823 448.693 44.2109C448.524 44.237 448.359 44.2604 448.197 44.2812C448.038 44.2995 447.91 44.3151 447.811 44.3281C447.571 44.3594 447.347 44.4102 447.139 44.4805C446.933 44.5482 446.766 44.651 446.639 44.7891C446.514 44.9245 446.451 45.1094 446.451 45.3437C446.451 45.6641 446.57 45.9062 446.807 46.0703C447.046 46.2318 447.35 46.3125 447.717 46.3125Z" fill="black" fill-opacity="0.5"/>
<path d="M165.997 30V22.9091H167.05V24.017H167.142C167.29 23.6385 167.528 23.3446 167.858 23.1353C168.187 22.9229 168.582 22.8168 169.044 22.8168C169.512 22.8168 169.901 22.9229 170.212 23.1353C170.526 23.3446 170.771 23.6385 170.946 24.017H171.02C171.201 23.6508 171.474 23.36 171.837 23.1445C172.2 22.926 172.636 22.8168 173.143 22.8168C173.777 22.8168 174.296 23.0153 174.699 23.4123C175.102 23.8062 175.304 24.4202 175.304 25.2543V30H174.214V25.2543C174.214 24.7311 174.071 24.3571 173.785 24.1325C173.499 23.9078 173.162 23.7955 172.774 23.7955C172.276 23.7955 171.889 23.9463 171.615 24.2479C171.342 24.5464 171.205 24.925 171.205 25.3835V30H170.097V25.1435C170.097 24.7403 169.966 24.4156 169.704 24.1694C169.443 23.9201 169.106 23.7955 168.693 23.7955C168.41 23.7955 168.145 23.8709 167.899 24.0217C167.656 24.1725 167.459 24.3817 167.308 24.6495C167.161 24.9142 167.087 25.2204 167.087 25.5682V30H165.997ZM177.296 32.6591V22.9091H178.349V24.0355H178.478C178.558 23.9124 178.669 23.7554 178.81 23.5646C178.955 23.3707 179.161 23.1984 179.429 23.0476C179.7 22.8937 180.066 22.8168 180.528 22.8168C181.125 22.8168 181.651 22.966 182.106 23.2646C182.562 23.5631 182.917 23.9863 183.173 24.5341C183.428 25.0819 183.556 25.7282 183.556 26.473C183.556 27.224 183.428 27.8749 183.173 28.4258C182.917 28.9736 182.563 29.3983 182.111 29.6999C181.659 29.9985 181.137 30.1477 180.546 30.1477C180.09 30.1477 179.726 30.0723 179.452 29.9215C179.178 29.7676 178.967 29.5937 178.819 29.3999C178.672 29.2029 178.558 29.0398 178.478 28.9105H178.385V32.6591H177.296ZM178.367 26.4545C178.367 26.9901 178.445 27.4625 178.602 27.8718C178.759 28.2781 178.989 28.5966 179.29 28.8274C179.592 29.0552 179.961 29.169 180.398 29.169C180.854 29.169 181.234 29.049 181.539 28.8089C181.846 28.5658 182.077 28.2396 182.231 27.8303C182.388 27.4179 182.466 26.9593 182.466 26.4545C182.466 25.956 182.39 25.5066 182.236 25.1065C182.085 24.7034 181.856 24.3848 181.548 24.1509C181.243 23.9139 180.86 23.7955 180.398 23.7955C179.955 23.7955 179.583 23.9078 179.281 24.1325C178.979 24.354 178.752 24.6649 178.598 25.065C178.444 25.462 178.367 25.9252 178.367 26.4545ZM188.191 30.1477C187.508 30.1477 186.918 29.9969 186.423 29.6953C185.93 29.3906 185.55 28.9659 185.282 28.4212C185.018 27.8733 184.885 27.2363 184.885 26.5099C184.885 25.7836 185.018 25.1435 185.282 24.5895C185.55 24.0324 185.923 23.5985 186.4 23.2876C186.88 22.9737 187.44 22.8168 188.08 22.8168C188.449 22.8168 188.814 22.8783 189.174 23.0014C189.534 23.1245 189.862 23.3246 190.157 23.6016C190.453 23.8755 190.688 24.2386 190.864 24.6911C191.039 25.1435 191.127 25.7005 191.127 26.3622V26.8239H185.661V25.8821H190.019C190.019 25.482 189.939 25.125 189.779 24.8111C189.622 24.4972 189.397 24.2494 189.105 24.0678C188.816 23.8862 188.474 23.7955 188.08 23.7955C187.646 23.7955 187.271 23.9032 186.954 24.1186C186.64 24.331 186.398 24.608 186.229 24.9496C186.06 25.2912 185.975 25.6574 185.975 26.0483V26.6761C185.975 27.2116 186.067 27.6656 186.252 28.038C186.44 28.4073 186.7 28.6889 187.032 28.8828C187.365 29.0736 187.751 29.169 188.191 29.169C188.477 29.169 188.736 29.129 188.966 29.049C189.2 28.9659 189.402 28.8428 189.571 28.6797C189.74 28.5135 189.871 28.3073 189.964 28.0611L191.016 28.3565C190.905 28.7135 190.719 29.0275 190.458 29.2983C190.196 29.5661 189.873 29.7753 189.488 29.9261C189.103 30.0739 188.671 30.1477 188.191 30.1477ZM195.646 32.8068C195.12 32.8068 194.668 32.7391 194.289 32.6037C193.911 32.4714 193.595 32.2959 193.343 32.0774C193.094 31.862 192.895 31.6312 192.747 31.3849L193.615 30.7756C193.714 30.9048 193.838 31.0526 193.989 31.2188C194.14 31.388 194.346 31.5342 194.608 31.6573C194.872 31.7835 195.219 31.8466 195.646 31.8466C196.219 31.8466 196.691 31.7081 197.064 31.4311C197.436 31.1541 197.622 30.7202 197.622 30.1293V28.6889H197.53C197.45 28.8182 197.336 28.9782 197.188 29.169C197.044 29.3568 196.834 29.5245 196.561 29.6722C196.29 29.8169 195.923 29.8892 195.462 29.8892C194.889 29.8892 194.375 29.7538 193.92 29.483C193.468 29.2121 193.109 28.8182 192.844 28.3011C192.583 27.7841 192.452 27.1562 192.452 26.4176C192.452 25.6913 192.58 25.0588 192.835 24.5202C193.09 23.9786 193.446 23.56 193.901 23.2646C194.357 22.966 194.883 22.8168 195.48 22.8168C195.942 22.8168 196.308 22.8937 196.579 23.0476C196.853 23.1984 197.062 23.3707 197.207 23.5646C197.355 23.7554 197.468 23.9124 197.548 24.0355H197.659V22.9091H198.712V30.2031C198.712 30.8125 198.573 31.308 198.296 31.6896C198.022 32.0743 197.653 32.3559 197.188 32.5344C196.727 32.716 196.213 32.8068 195.646 32.8068ZM195.61 28.9105C196.047 28.9105 196.416 28.8105 196.718 28.6104C197.019 28.4104 197.248 28.1226 197.405 27.7472C197.562 27.3717 197.641 26.9223 197.641 26.3991C197.641 25.8883 197.564 25.4374 197.41 25.0465C197.256 24.6557 197.028 24.3494 196.727 24.1278C196.425 23.9062 196.053 23.7955 195.61 23.7955C195.148 23.7955 194.763 23.9124 194.455 24.1463C194.151 24.3802 193.921 24.6941 193.768 25.0881C193.617 25.482 193.541 25.919 193.541 26.3991C193.541 26.8916 193.618 27.3271 193.772 27.7056C193.929 28.0811 194.16 28.3765 194.465 28.592C194.772 28.8043 195.154 28.9105 195.61 28.9105Z" fill="black" fill-opacity="0.5"/>
<path d="M459.804 24L457.477 16.3636H458.71L460.361 22.2102H460.44L462.071 16.3636H463.324L464.935 22.1903H465.014L466.665 16.3636H467.898L465.571 24H464.418L462.747 18.1335H462.628L460.957 24H459.804ZM471.696 24.179C471.212 24.179 470.773 24.0878 470.379 23.9055C469.984 23.7199 469.671 23.4531 469.439 23.1051C469.207 22.7538 469.091 22.3295 469.091 21.8324C469.091 21.3949 469.177 21.0402 469.349 20.7685C469.522 20.4934 469.752 20.2779 470.04 20.1222C470.329 19.9664 470.647 19.8504 470.995 19.7741C471.346 19.6946 471.699 19.6316 472.054 19.5852C472.518 19.5256 472.894 19.4808 473.183 19.451C473.474 19.4179 473.686 19.3632 473.819 19.2869C473.955 19.2107 474.023 19.0781 474.023 18.8892V18.8494C474.023 18.3589 473.888 17.9777 473.62 17.706C473.355 17.4342 472.952 17.2983 472.412 17.2983C471.852 17.2983 471.413 17.4209 471.094 17.6662C470.776 17.9115 470.553 18.1733 470.423 18.4517L469.31 18.054C469.509 17.59 469.774 17.2287 470.105 16.9702C470.44 16.7083 470.804 16.526 471.199 16.4233C471.597 16.3172 471.988 16.2642 472.372 16.2642C472.617 16.2642 472.899 16.294 473.217 16.3537C473.539 16.41 473.849 16.5277 474.147 16.7067C474.449 16.8857 474.699 17.1558 474.898 17.517C475.097 17.8783 475.196 18.3622 475.196 18.9688V24H474.023V22.9659H473.963C473.884 23.1316 473.751 23.3089 473.565 23.4979C473.38 23.6868 473.133 23.8475 472.825 23.9801C472.516 24.1127 472.14 24.179 471.696 24.179ZM471.875 23.125C472.339 23.125 472.73 23.0339 473.048 22.8516C473.37 22.6693 473.612 22.4339 473.774 22.1456C473.94 21.8572 474.023 21.554 474.023 21.2358V20.1619C473.973 20.2216 473.864 20.2763 473.695 20.326C473.529 20.3724 473.337 20.4138 473.118 20.4503C472.902 20.4834 472.692 20.5133 472.487 20.5398C472.284 20.563 472.12 20.5829 471.994 20.5994C471.689 20.6392 471.404 20.7038 471.139 20.7933C470.877 20.8795 470.665 21.0104 470.503 21.1861C470.344 21.3584 470.264 21.5937 470.264 21.892C470.264 22.2997 470.415 22.608 470.717 22.8168C471.022 23.0223 471.408 23.125 471.875 23.125ZM483.308 16.3636L480.485 24H479.291L476.468 16.3636H477.74L479.848 22.4489H479.928L482.036 16.3636H483.308Z" fill="black" fill-opacity="0.5"/>
<path d="M89.5341 44V33.0909H91.1534V34.7955H91.2955C91.5227 34.2131 91.8897 33.7609 92.3963 33.4389C92.9029 33.1122 93.5114 32.9489 94.2216 32.9489C94.9413 32.9489 95.5402 33.1122 96.0185 33.4389C96.5014 33.7609 96.8778 34.2131 97.1477 34.7955H97.2614C97.5407 34.232 97.9598 33.7846 98.5185 33.4531C99.0772 33.117 99.7472 32.9489 100.528 32.9489C101.504 32.9489 102.302 33.2543 102.922 33.8651C103.542 34.4711 103.852 35.4157 103.852 36.6989V44H102.176V36.6989C102.176 35.8939 101.956 35.3187 101.516 34.973C101.075 34.6274 100.557 34.4545 99.9602 34.4545C99.1932 34.4545 98.599 34.6866 98.1776 35.1506C97.7562 35.6098 97.5455 36.1922 97.5455 36.8977V44H95.8409V36.5284C95.8409 35.9081 95.6397 35.4086 95.2372 35.0298C94.8348 34.6463 94.3163 34.4545 93.6818 34.4545C93.2462 34.4545 92.839 34.5705 92.4602 34.8026C92.0862 35.0346 91.7831 35.3565 91.5511 35.7685C91.3239 36.1757 91.2102 36.6468 91.2102 37.1818V44H89.5341ZM106.917 48.0909V33.0909H108.536V34.8239H108.735C108.858 34.6345 109.029 34.393 109.246 34.0994C109.469 33.8011 109.786 33.536 110.198 33.304C110.615 33.0672 111.178 32.9489 111.888 32.9489C112.807 32.9489 113.617 33.1785 114.317 33.6378C115.018 34.0971 115.565 34.7481 115.958 35.5909C116.351 36.4337 116.548 37.428 116.548 38.5739C116.548 39.7292 116.351 40.7306 115.958 41.5781C115.565 42.4209 115.021 43.0743 114.325 43.5384C113.629 43.9976 112.826 44.2273 111.917 44.2273C111.216 44.2273 110.655 44.1113 110.234 43.8793C109.812 43.6425 109.488 43.375 109.261 43.0767C109.033 42.7737 108.858 42.5227 108.735 42.3239H108.593V48.0909H106.917ZM108.565 38.5455C108.565 39.3693 108.685 40.0961 108.927 40.7259C109.168 41.3509 109.521 41.8409 109.985 42.196C110.449 42.5464 111.017 42.7216 111.69 42.7216C112.39 42.7216 112.975 42.5369 113.444 42.1676C113.917 41.7936 114.272 41.2917 114.509 40.6619C114.751 40.0275 114.871 39.322 114.871 38.5455C114.871 37.7784 114.753 37.0871 114.516 36.4716C114.284 35.8513 113.932 35.3613 113.458 35.0014C112.989 34.6368 112.4 34.4545 111.69 34.4545C111.008 34.4545 110.435 34.6274 109.971 34.973C109.507 35.3139 109.156 35.7921 108.92 36.4077C108.683 37.0185 108.565 37.7311 108.565 38.5455ZM123.991 44.1989C123.053 44.1989 122.218 44.0379 121.484 43.7159C120.754 43.3939 120.174 42.9465 119.744 42.3736C119.317 41.7959 119.085 41.1259 119.048 40.3636H120.837C120.875 40.8324 121.036 41.2372 121.32 41.5781C121.604 41.9143 121.976 42.1747 122.435 42.3594C122.895 42.544 123.404 42.6364 123.962 42.6364C124.587 42.6364 125.141 42.5275 125.624 42.3097C126.107 42.0919 126.486 41.7888 126.761 41.4006C127.035 41.0123 127.173 40.5625 127.173 40.0511C127.173 39.5161 127.04 39.045 126.775 38.6378C126.51 38.2259 126.121 37.9039 125.61 37.6719C125.099 37.4399 124.474 37.3239 123.735 37.3239H122.57V35.7614H123.735C124.313 35.7614 124.819 35.6572 125.255 35.4489C125.695 35.2405 126.039 34.947 126.285 34.5682C126.536 34.1894 126.661 33.7443 126.661 33.233C126.661 32.7405 126.552 32.312 126.335 31.9474C126.117 31.5829 125.809 31.2988 125.411 31.0952C125.018 30.8916 124.554 30.7898 124.019 30.7898C123.517 30.7898 123.044 30.8821 122.599 31.0668C122.158 31.2467 121.799 31.5095 121.519 31.8551C121.24 32.196 121.088 32.608 121.065 33.0909H119.36C119.388 32.3286 119.618 31.661 120.049 31.0881C120.48 30.5104 121.043 30.0606 121.739 29.7386C122.44 29.4167 123.21 29.2557 124.048 29.2557C124.947 29.2557 125.719 29.438 126.363 29.8026C127.007 30.1624 127.502 30.6383 127.847 31.2301C128.193 31.822 128.366 32.4612 128.366 33.1477C128.366 33.9669 128.15 34.6652 127.719 35.2429C127.293 35.8205 126.713 36.2206 125.979 36.4432V36.5568C126.898 36.7083 127.615 37.099 128.131 37.7287C128.647 38.3537 128.906 39.1278 128.906 40.0511C128.906 40.8419 128.69 41.5521 128.259 42.1818C127.833 42.8068 127.251 43.2992 126.512 43.6591C125.773 44.0189 124.933 44.1989 123.991 44.1989Z" fill="black" fill-opacity="0.5"/>
<path d="M28.2273 29V20.2727H29.5227V21.6364H29.6364C29.8182 21.1705 30.1117 20.8087 30.517 20.5511C30.9223 20.2898 31.4091 20.1591 31.9773 20.1591C32.553 20.1591 33.0322 20.2898 33.4148 20.5511C33.8011 20.8087 34.1023 21.1705 34.3182 21.6364H34.4091C34.6326 21.1856 34.9678 20.8277 35.4148 20.5625C35.8617 20.2936 36.3977 20.1591 37.0227 20.1591C37.803 20.1591 38.4413 20.4034 38.9375 20.892C39.4337 21.3769 39.6818 22.1326 39.6818 23.1591V29H38.3409V23.1591C38.3409 22.5152 38.1648 22.0549 37.8125 21.7784C37.4602 21.5019 37.0455 21.3636 36.5682 21.3636C35.9545 21.3636 35.4792 21.5492 35.142 21.9205C34.8049 22.2879 34.6364 22.7538 34.6364 23.3182V29H33.2727V23.0227C33.2727 22.5265 33.1117 22.1269 32.7898 21.8239C32.4678 21.517 32.053 21.3636 31.5455 21.3636C31.197 21.3636 30.8712 21.4564 30.5682 21.642C30.2689 21.8277 30.0265 22.0852 29.8409 22.4148C29.6591 22.7405 29.5682 23.1174 29.5682 23.5455V29H28.2273ZM42.1335 32.2727V20.2727H43.429V21.6591H43.5881C43.6866 21.5076 43.8229 21.3144 43.9972 21.0795C44.1752 20.8409 44.429 20.6288 44.7585 20.4432C45.0919 20.2538 45.5426 20.1591 46.1108 20.1591C46.8456 20.1591 47.4934 20.3428 48.054 20.7102C48.6146 21.0777 49.0521 21.5985 49.3665 22.2727C49.6809 22.947 49.8381 23.7424 49.8381 24.6591C49.8381 25.5833 49.6809 26.3845 49.3665 27.0625C49.0521 27.7367 48.6165 28.2595 48.0597 28.6307C47.5028 28.9981 46.8608 29.1818 46.1335 29.1818C45.5729 29.1818 45.1241 29.089 44.7869 28.9034C44.4498 28.714 44.1903 28.5 44.0085 28.2614C43.8267 28.0189 43.6866 27.8182 43.5881 27.6591H43.4744V32.2727H42.1335ZM43.4517 24.6364C43.4517 25.2955 43.5483 25.8769 43.7415 26.3807C43.9347 26.8807 44.2169 27.2727 44.5881 27.5568C44.9593 27.8371 45.4138 27.9773 45.9517 27.9773C46.5123 27.9773 46.9801 27.8295 47.3551 27.5341C47.7339 27.2348 48.018 26.8333 48.2074 26.3295C48.4006 25.822 48.4972 25.2576 48.4972 24.6364C48.4972 24.0227 48.4025 23.4697 48.2131 22.9773C48.0275 22.4811 47.7453 22.089 47.3665 21.8011C46.9915 21.5095 46.5199 21.3636 45.9517 21.3636C45.4063 21.3636 44.9479 21.5019 44.5767 21.7784C44.2055 22.0511 43.9252 22.4337 43.7358 22.9261C43.5464 23.4148 43.4517 23.9848 43.4517 24.6364ZM51.5881 26.6136V25.4545L56.7017 17.3636H57.5426V19.1591H56.9744L53.1108 25.2727V25.3636H59.9972V26.6136H51.5881ZM57.0653 29V26.2614V25.7216V17.3636H58.4062V29H57.0653Z" fill="black" fill-opacity="0.5"/>
<path d="M372.403 29L370.409 22.4545H371.466L372.881 27.4659H372.949L374.347 22.4545H375.42L376.801 27.4489H376.869L378.284 22.4545H379.341L377.347 29H376.358L374.926 23.9716H374.824L373.392 29H372.403ZM383.192 29.1364C382.561 29.1364 382.017 28.9972 381.56 28.7188C381.105 28.4375 380.755 28.0455 380.507 27.5426C380.263 27.0369 380.141 26.4489 380.141 25.7784C380.141 25.108 380.263 24.517 380.507 24.0057C380.755 23.4915 381.098 23.0909 381.539 22.804C381.982 22.5142 382.499 22.3693 383.09 22.3693C383.431 22.3693 383.767 22.4261 384.1 22.5398C384.432 22.6534 384.735 22.8381 385.007 23.0938C385.28 23.3466 385.498 23.6818 385.659 24.0994C385.821 24.517 385.902 25.0312 385.902 25.642V26.0682H380.857V25.1989H384.88C384.88 24.8295 384.806 24.5 384.658 24.2102C384.513 23.9205 384.306 23.6918 384.036 23.5241C383.769 23.3565 383.453 23.2727 383.09 23.2727C382.689 23.2727 382.343 23.3722 382.05 23.571C381.76 23.767 381.537 24.0227 381.381 24.3381C381.225 24.6534 381.147 24.9915 381.147 25.3523V25.9318C381.147 26.4261 381.232 26.8452 381.402 27.1889C381.576 27.5298 381.816 27.7898 382.123 27.9688C382.429 28.1449 382.786 28.233 383.192 28.233C383.456 28.233 383.695 28.196 383.908 28.1222C384.124 28.0455 384.31 27.9318 384.466 27.7812C384.623 27.6278 384.743 27.4375 384.828 27.2102L385.8 27.483C385.698 27.8125 385.526 28.1023 385.284 28.3523C385.043 28.5994 384.745 28.7926 384.39 28.9318C384.034 29.0682 383.635 29.1364 383.192 29.1364ZM387.569 29V20.2727H388.574V23.4943H388.659C388.733 23.3807 388.836 23.2358 388.966 23.0597C389.1 22.8807 389.29 22.7216 389.537 22.5824C389.787 22.4403 390.125 22.3693 390.551 22.3693C391.103 22.3693 391.588 22.5071 392.009 22.7827C392.429 23.0582 392.757 23.4489 392.993 23.9545C393.229 24.4602 393.347 25.0568 393.347 25.7443C393.347 26.4375 393.229 27.0384 392.993 27.5469C392.757 28.0526 392.431 28.4446 392.013 28.723C391.596 28.9986 391.114 29.1364 390.569 29.1364C390.148 29.1364 389.811 29.0668 389.559 28.9276C389.306 28.7855 389.111 28.625 388.975 28.446C388.838 28.2642 388.733 28.1136 388.659 27.9943H388.54V29H387.569ZM388.557 25.7273C388.557 26.2216 388.63 26.6577 388.775 27.0355C388.919 27.4105 389.131 27.7045 389.409 27.9176C389.688 28.1278 390.029 28.233 390.432 28.233C390.853 28.233 391.203 28.1222 391.485 27.9006C391.769 27.6761 391.982 27.375 392.124 26.9972C392.269 26.6165 392.341 26.1932 392.341 25.7273C392.341 25.267 392.27 24.8523 392.128 24.483C391.989 24.1108 391.777 23.8168 391.493 23.6009C391.212 23.3821 390.858 23.2727 390.432 23.2727C390.023 23.2727 389.679 23.3764 389.401 23.5838C389.123 23.7884 388.912 24.0753 388.77 24.4446C388.628 24.8111 388.557 25.2386 388.557 25.7273ZM394.885 29V22.4545H395.857V23.4773H395.942C396.078 23.1278 396.299 22.8565 396.603 22.6634C396.907 22.4673 397.272 22.3693 397.698 22.3693C398.13 22.3693 398.489 22.4673 398.776 22.6634C399.066 22.8565 399.292 23.1278 399.453 23.4773H399.522C399.689 23.1392 399.941 22.8707 400.276 22.6719C400.611 22.4702 401.013 22.3693 401.482 22.3693C402.067 22.3693 402.546 22.5526 402.918 22.919C403.29 23.2827 403.476 23.8494 403.476 24.6193V29H402.471V24.6193C402.471 24.1364 402.338 23.7912 402.074 23.5838C401.81 23.3764 401.499 23.2727 401.141 23.2727C400.681 23.2727 400.324 23.4119 400.071 23.6903C399.819 23.9659 399.692 24.3153 399.692 24.7386V29H398.669V24.517C398.669 24.1449 398.549 23.8452 398.307 23.6179C398.066 23.3878 397.755 23.2727 397.374 23.2727C397.113 23.2727 396.868 23.3423 396.641 23.4815C396.417 23.6207 396.235 23.8139 396.096 24.0611C395.959 24.3054 395.891 24.5881 395.891 24.9091V29H394.885Z" fill="black" fill-opacity="0.5"/>
<path d="M508.151 38V29.8182H509.365V31.0966H509.472C509.642 30.6598 509.917 30.3207 510.297 30.0792C510.677 29.8342 511.134 29.7116 511.666 29.7116C512.206 29.7116 512.655 29.8342 513.014 30.0792C513.376 30.3207 513.658 30.6598 513.861 31.0966H513.946C514.156 30.674 514.47 30.3384 514.889 30.0898C515.308 29.8377 515.81 29.7116 516.396 29.7116C517.128 29.7116 517.726 29.9407 518.191 30.3988C518.657 30.8533 518.889 31.5618 518.889 32.5241V38H517.632V32.5241C517.632 31.9205 517.467 31.489 517.137 31.2298C516.806 30.9705 516.418 30.8409 515.97 30.8409C515.395 30.8409 514.949 31.0149 514.633 31.3629C514.317 31.7074 514.159 32.1442 514.159 32.6733V38H512.881V32.3963C512.881 31.9311 512.73 31.5565 512.428 31.2724C512.126 30.9847 511.737 30.8409 511.261 30.8409C510.935 30.8409 510.629 30.9279 510.345 31.1019C510.065 31.2759 509.837 31.5174 509.663 31.8263C509.493 32.1317 509.408 32.4851 509.408 32.8864V38H508.151ZM520.911 35.7628V34.6761L525.705 27.0909H526.493V28.7741H525.96L522.338 34.5057V34.5909H528.794V35.7628H520.911ZM526.046 38V35.4325V34.9265V27.0909H527.303V38H526.046ZM533.219 38.1918C532.701 38.1918 532.23 38.0941 531.808 37.8988C531.385 37.6999 531.05 37.4141 530.801 37.0412C530.552 36.6648 530.428 36.2102 530.428 35.6776C530.428 35.2088 530.521 34.8288 530.705 34.5376C530.89 34.2429 531.137 34.0121 531.446 33.8452C531.755 33.6783 532.095 33.554 532.468 33.4723C532.845 33.3871 533.223 33.3196 533.603 33.2699C534.1 33.206 534.503 33.158 534.812 33.1261C535.125 33.0906 535.352 33.032 535.494 32.9503C535.639 32.8686 535.712 32.7266 535.712 32.5241V32.4815C535.712 31.956 535.568 31.5476 535.281 31.2564C534.997 30.9652 534.565 30.8196 533.986 30.8196C533.386 30.8196 532.916 30.951 532.575 31.2138C532.234 31.4766 531.994 31.7571 531.856 32.0554L530.663 31.6293C530.876 31.1321 531.16 30.745 531.515 30.468C531.873 30.1875 532.264 29.9922 532.687 29.8821C533.113 29.7685 533.532 29.7116 533.944 29.7116C534.207 29.7116 534.508 29.7436 534.849 29.8075C535.194 29.8679 535.526 29.994 535.845 30.1857C536.169 30.3775 536.437 30.6669 536.65 31.054C536.863 31.4411 536.969 31.9595 536.969 32.6094V38H535.712V36.892H535.648C535.563 37.0696 535.421 37.2596 535.222 37.462C535.023 37.6644 534.759 37.8366 534.429 37.9787C534.098 38.1207 533.695 38.1918 533.219 38.1918ZM533.411 37.0625C533.908 37.0625 534.327 36.9648 534.668 36.7695C535.013 36.5742 535.272 36.3221 535.446 36.0131C535.623 35.7042 535.712 35.3793 535.712 35.0384V33.8878C535.659 33.9517 535.542 34.0103 535.361 34.0636C535.183 34.1133 534.977 34.1577 534.743 34.1967C534.512 34.2322 534.286 34.2642 534.066 34.2926C533.85 34.3175 533.674 34.3388 533.539 34.3565C533.212 34.3991 532.907 34.4684 532.623 34.5643C532.342 34.6566 532.115 34.7969 531.941 34.9851C531.771 35.1697 531.685 35.4219 531.685 35.7415C531.685 36.1783 531.847 36.5085 532.17 36.7322C532.497 36.9524 532.91 37.0625 533.411 37.0625Z" fill="black" fill-opacity="0.5"/>
</svg>
