<svg width="28" height="28" viewBox="0 0 28 28" fill="none" xmlns="http://www.w3.org/2000/svg">
<path fill-rule="evenodd" clip-rule="evenodd" d="M14.0353 2.90077C14.2914 3.32856 14.2473 3.87181 13.9256 4.25273C12.5359 5.89832 11.6993 8.0227 11.6993 10.3455C11.6993 15.5642 15.9299 19.7947 21.1485 19.7947C21.8267 19.7947 22.4869 19.7234 23.1226 19.5884C23.6103 19.4848 24.11 19.7026 24.366 20.1304C24.6221 20.5582 24.5781 21.1015 24.2564 21.4824C22.0968 24.0395 18.8633 25.6667 15.2508 25.6667C8.74348 25.6667 3.46826 20.3914 3.46826 13.8841C3.46826 8.21908 7.4651 3.49024 12.7919 2.35878C13.2796 2.25519 13.7792 2.47297 14.0353 2.90077ZM10.2476 5.86635C7.57748 7.5363 5.80159 10.5036 5.80159 13.8841C5.80159 19.1028 10.0321 23.3333 15.2508 23.3333C16.9714 23.3333 18.5844 22.8739 19.9741 22.0702C14.0182 21.4808 9.36599 16.4565 9.36599 10.3455C9.36599 8.76036 9.67946 7.24753 10.2476 5.86635Z" fill="white"/>
</svg>
