<svg width="31" height="31" viewBox="0 0 31 31" fill="none" xmlns="http://www.w3.org/2000/svg">
<path d="M9.16761 19.0994C8.86932 19.0947 8.57102 19.0379 8.27273 18.929C7.97443 18.8201 7.70218 18.6366 7.45597 18.3786C7.20975 18.1181 7.01207 17.7666 6.86293 17.3239C6.71378 16.8788 6.6392 16.3201 6.6392 15.6477C6.6392 15.0038 6.69957 14.4332 6.82031 13.9361C6.94105 13.4366 7.11624 13.0163 7.34588 12.6754C7.57552 12.3321 7.85251 12.0717 8.17685 11.8942C8.50355 11.7166 8.87169 11.6278 9.28125 11.6278C9.68845 11.6278 10.0507 11.7095 10.3679 11.8729C10.6875 12.0339 10.9479 12.2588 11.1491 12.5476C11.3504 12.8364 11.4806 13.169 11.5398 13.5455H10.6733C10.5928 13.2187 10.4366 12.9477 10.2045 12.7322C9.97254 12.5168 9.66477 12.4091 9.28125 12.4091C8.7178 12.4091 8.27391 12.6541 7.94957 13.1442C7.6276 13.6342 7.46544 14.322 7.46307 15.2074H7.51989C7.65246 15.0062 7.8099 14.8345 7.99219 14.6925C8.17685 14.5481 8.38045 14.4368 8.60298 14.3587C8.82552 14.2805 9.06108 14.2415 9.30966 14.2415C9.72633 14.2415 10.1075 14.3456 10.4531 14.554C10.7988 14.7599 11.0758 15.0452 11.2841 15.4098C11.4924 15.772 11.5966 16.1875 11.5966 16.6562C11.5966 17.1061 11.496 17.518 11.2947 17.892C11.0935 18.2637 10.8106 18.5597 10.446 18.7798C10.0838 18.9976 9.65767 19.1042 9.16761 19.0994ZM9.16761 18.3182C9.46591 18.3182 9.73343 18.2436 9.97017 18.0945C10.2093 17.9453 10.3975 17.7453 10.5348 17.4943C10.6745 17.2434 10.7443 16.964 10.7443 16.6562C10.7443 16.3556 10.6768 16.0821 10.5419 15.8359C10.4093 15.5874 10.2259 15.3897 9.99148 15.2429C9.75947 15.0961 9.49432 15.0227 9.19602 15.0227C8.97112 15.0227 8.7616 15.0677 8.56747 15.1577C8.37334 15.2453 8.20289 15.366 8.05611 15.5199C7.9117 15.6738 7.79806 15.8501 7.7152 16.049C7.63234 16.2455 7.59091 16.4527 7.59091 16.6705C7.59091 16.9593 7.65838 17.2292 7.79332 17.4801C7.93063 17.7311 8.11766 17.9335 8.3544 18.0874C8.59351 18.2412 8.86458 18.3182 9.16761 18.3182ZM15.2658 19.0994C14.8491 19.0994 14.4739 19.0166 14.1401 18.8509C13.8063 18.6851 13.5388 18.4579 13.3375 18.169C13.1363 17.8802 13.0262 17.5511 13.0073 17.1818H13.8596C13.8927 17.5109 14.0418 17.7831 14.307 17.9986C14.5745 18.2116 14.8941 18.3182 15.2658 18.3182C15.5641 18.3182 15.8292 18.2483 16.0613 18.1087C16.2956 17.969 16.4791 17.7772 16.6117 17.5334C16.7466 17.2872 16.8141 17.009 16.8141 16.6989C16.8141 16.3816 16.7443 16.0987 16.6046 15.8501C16.4673 15.5992 16.2779 15.4015 16.0364 15.2571C15.7949 15.1127 15.5191 15.0393 15.209 15.0369C14.9864 15.0346 14.758 15.0689 14.5236 15.1399C14.2892 15.2086 14.0963 15.2973 13.9448 15.4062L13.1209 15.3068L13.5613 11.7273H17.3397V12.5085H14.2999L14.0442 14.6534H14.0868C14.236 14.535 14.423 14.4368 14.6479 14.3587C14.8728 14.2805 15.1072 14.2415 15.351 14.2415C15.7961 14.2415 16.1926 14.348 16.5407 14.5611C16.891 14.7718 17.1657 15.0606 17.3645 15.4276C17.5658 15.7945 17.6664 16.2135 17.6664 16.6847C17.6664 17.1487 17.5622 17.563 17.3539 17.9276C17.1479 18.2898 16.8638 18.5762 16.5016 18.7869C16.1394 18.9953 15.7275 19.0994 15.2658 19.0994ZM22.7844 17.6364V17.2528C22.7844 16.9877 22.8389 16.745 22.9478 16.5249C23.0591 16.3023 23.2201 16.1248 23.4308 15.9922C23.6438 15.8572 23.9019 15.7898 24.2049 15.7898C24.5127 15.7898 24.7707 15.8572 24.979 15.9922C25.1874 16.1248 25.3448 16.3023 25.4513 16.5249C25.5579 16.745 25.6112 16.9877 25.6112 17.2528V17.6364C25.6112 17.9015 25.5567 18.1454 25.4478 18.3679C25.3413 18.5881 25.1826 18.7656 24.9719 18.9006C24.7636 19.0331 24.5079 19.0994 24.2049 19.0994C23.8971 19.0994 23.6379 19.0331 23.4272 18.9006C23.2165 18.7656 23.0567 18.5881 22.9478 18.3679C22.8389 18.1454 22.7844 17.9015 22.7844 17.6364ZM23.5089 17.2528V17.6364C23.5089 17.8565 23.561 18.0542 23.6651 18.2294C23.7693 18.4022 23.9492 18.4886 24.2049 18.4886C24.4535 18.4886 24.6287 18.4022 24.7305 18.2294C24.8346 18.0542 24.8867 17.8565 24.8867 17.6364V17.2528C24.8867 17.0327 24.837 16.8362 24.7376 16.6634C24.6381 16.4882 24.4606 16.4006 24.2049 16.4006C23.9563 16.4006 23.7776 16.4882 23.6687 16.6634C23.5621 16.8362 23.5089 17.0327 23.5089 17.2528ZM19.1623 13.4744V13.0909C19.1623 12.8258 19.2167 12.5831 19.3256 12.3629C19.4369 12.1404 19.5979 11.9628 19.8086 11.8303C20.0217 11.6953 20.2797 11.6278 20.5827 11.6278C20.8905 11.6278 21.1486 11.6953 21.3569 11.8303C21.5652 11.9628 21.7227 12.1404 21.8292 12.3629C21.9357 12.5831 21.989 12.8258 21.989 13.0909V13.4744C21.989 13.7396 21.9345 13.9834 21.8256 14.206C21.7191 14.4261 21.5605 14.6037 21.3498 14.7386C21.1415 14.8712 20.8858 14.9375 20.5827 14.9375C20.275 14.9375 20.0157 14.8712 19.805 14.7386C19.5943 14.6037 19.4345 14.4261 19.3256 14.206C19.2167 13.9834 19.1623 13.7396 19.1623 13.4744ZM19.8867 13.0909V13.4744C19.8867 13.6946 19.9388 13.8923 20.043 14.0675C20.1471 14.2403 20.3271 14.3267 20.5827 14.3267C20.8313 14.3267 21.0065 14.2403 21.1083 14.0675C21.2125 13.8923 21.2646 13.6946 21.2646 13.4744V13.0909C21.2646 12.8707 21.2148 12.6742 21.1154 12.5014C21.016 12.3262 20.8384 12.2386 20.5827 12.2386C20.3342 12.2386 20.1554 12.3262 20.0465 12.5014C19.94 12.6742 19.8867 12.8707 19.8867 13.0909ZM19.4322 19L24.4322 11.7273H25.2418L20.2418 19H19.4322Z" fill="black" fill-opacity="0.69"/>
<path d="M15.5 0C18.152 3.16253e-08 20.7597 0.680467 23.0736 1.97631C25.3875 3.27216 27.3302 5.14003 28.7159 7.40127C30.1016 9.66251 30.8839 12.2415 30.9881 14.8915C31.0922 17.5415 30.5146 20.1739 29.3106 22.5369C28.1066 24.8998 26.3164 26.9144 24.1113 28.3878C21.9062 29.8612 19.36 30.7441 16.7161 30.9522C14.0723 31.1603 11.4192 30.6865 9.01078 29.5762C6.60234 28.4659 4.51907 26.7562 2.96024 24.6107L5.46819 22.7885C6.71526 24.505 8.38187 25.8727 10.3086 26.761C12.2354 27.6492 14.3578 28.0282 16.4729 27.8618C18.588 27.6953 20.625 26.9889 22.3891 25.8102C24.1531 24.6315 25.5853 23.0199 26.5485 21.1295C27.5117 19.2391 27.9737 17.1332 27.8904 15.0132C27.8071 12.8932 27.1813 10.83 26.0727 9.02102C24.9642 7.21203 23.41 5.71772 21.5589 4.68105C19.7078 3.64437 17.6216 3.1 15.5 3.1V0Z" fill="#0D21D8"/>
<path d="M2.80314 24.3904C1.16355 22.0489 0.203421 19.2995 0.0289107 16.4463C-0.1456 13.593 0.472306 10.7471 1.81431 8.22319C3.15632 5.69924 5.17015 3.59557 7.63315 2.14475C10.0962 0.693927 12.9124 -0.0475276 15.7705 0.0023607L15.7164 3.10189C13.4299 3.06198 11.1769 3.65514 9.20652 4.8158C7.23612 5.97646 5.62505 7.6594 4.55145 9.67855C3.47784 11.6977 2.98352 13.9744 3.12313 16.257C3.26274 18.5396 4.03084 20.7391 5.34251 22.6123L2.80314 24.3904Z" fill="#8F8888"/>
</svg>
