<svg width="13" height="13" viewBox="0 0 13 13" fill="none" xmlns="http://www.w3.org/2000/svg">
<path d="M9.20527 1.26491L3.625 3.125C1.33052 3.88983 0.183281 4.27224 0.162711 4.97056C0.162133 4.99018 0.162133 5.00982 0.162711 5.02944C0.183281 5.72776 1.33052 6.11017 3.625 6.875L3.625 6.875C4.53386 7.17795 4.98829 7.32943 5.31753 7.65155C5.32795 7.66174 5.33826 7.67205 5.34845 7.68247C5.67057 8.01171 5.82205 8.46614 6.125 9.37499L6.125 9.375C6.88983 11.6695 7.27224 12.8167 7.97056 12.8373C7.99018 12.8379 8.00982 12.8379 8.02944 12.8373C8.72776 12.8167 9.11017 11.6695 9.875 9.375L11.7351 3.79473C12.287 2.13894 12.563 1.31105 12.126 0.874032C11.689 0.437016 10.8611 0.712981 9.20527 1.26491Z" fill="#011AFF" fill-opacity="0.56"/>
</svg>
