<svg width="29" height="30" viewBox="0 0 29 30" fill="none" xmlns="http://www.w3.org/2000/svg">
<path fill-rule="evenodd" clip-rule="evenodd" d="M14.5 2.5C15.1674 2.5 15.7084 3.05964 15.7084 3.75V6.25C15.7084 6.94036 15.1674 7.5 14.5 7.5C13.8327 7.5 13.2917 6.94036 13.2917 6.25V3.75C13.2917 3.05964 13.8327 2.5 14.5 2.5ZM23.0442 6.16116C23.5161 6.64932 23.5161 7.44078 23.0442 7.92893L21.3354 9.6967C20.8635 10.1849 20.0984 10.1849 19.6265 9.6967C19.1547 9.20854 19.1547 8.41709 19.6265 7.92893L21.3354 6.16117C21.8073 5.67301 22.5723 5.67301 23.0442 6.16116ZM5.95581 6.16117C6.4277 5.67301 7.19277 5.67301 7.66465 6.16117L9.3735 7.92893C9.84538 8.41709 9.84538 9.20854 9.3735 9.6967C8.90161 10.1849 8.13654 10.1849 7.66465 9.6967L5.95581 7.92893C5.48393 7.44078 5.48393 6.64932 5.95581 6.16117ZM14.5 11.875C12.8317 11.875 11.4792 13.2741 11.4792 15C11.4792 16.7259 12.8317 18.125 14.5 18.125C16.1684 18.125 17.5209 16.7259 17.5209 15C17.5209 13.2741 16.1684 11.875 14.5 11.875ZM9.06252 15C9.06252 11.8934 11.497 9.375 14.5 9.375C17.5031 9.375 19.9375 11.8934 19.9375 15C19.9375 18.1066 17.5031 20.625 14.5 20.625C11.497 20.625 9.06252 18.1066 9.06252 15ZM2.41669 15C2.41669 14.3096 2.95768 13.75 3.62502 13.75H6.04169C6.70903 13.75 7.25002 14.3096 7.25002 15C7.25002 15.6904 6.70903 16.25 6.04169 16.25H3.62502C2.95768 16.25 2.41669 15.6904 2.41669 15ZM21.75 15C21.75 14.3096 22.291 13.75 22.9584 13.75H25.375C26.0424 13.75 26.5834 14.3096 26.5834 15C26.5834 15.6904 26.0424 16.25 25.375 16.25H22.9584C22.291 16.25 21.75 15.6904 21.75 15ZM9.3735 20.3033C9.84538 20.7915 9.84538 21.5829 9.3735 22.0711L7.66466 23.8388C7.19277 24.327 6.4277 24.327 5.95581 23.8388C5.48393 23.3507 5.48393 22.5592 5.95581 22.0711L7.66466 20.3033C8.13654 19.8151 8.90161 19.8151 9.3735 20.3033ZM19.6265 20.3033C20.0984 19.8151 20.8635 19.8151 21.3354 20.3033L23.0442 22.0711C23.5161 22.5592 23.5161 23.3507 23.0442 23.8388C22.5723 24.327 21.8073 24.327 21.3354 23.8388L19.6265 22.0711C19.1547 21.5829 19.1547 20.7915 19.6265 20.3033ZM14.5 22.5C15.1674 22.5 15.7084 23.0596 15.7084 23.75V26.25C15.7084 26.9404 15.1674 27.5 14.5 27.5C13.8327 27.5 13.2917 26.9404 13.2917 26.25V23.75C13.2917 23.0596 13.8327 22.5 14.5 22.5Z" fill="black"/>
</svg>
