<svg width="74" height="51" viewBox="0 0 74 51" fill="none" xmlns="http://www.w3.org/2000/svg">
<g filter="url(#filter0_d_130_27)">
<path fill-rule="evenodd" clip-rule="evenodd" d="M28.781 6.53348C28.1048 6.53348 27.5567 7.08158 27.5567 7.7577V20C27.5567 22.0283 29.201 23.6726 31.2294 23.6726H43.4717C45.5 23.6726 47.1444 22.0283 47.1444 20V13.8788C47.1444 11.8505 45.5 10.2062 43.4717 10.2062H38.6609C37.4329 10.2062 36.2862 9.59245 35.6051 8.57071L34.6103 7.07862C34.3833 6.73804 34.001 6.53348 33.5917 6.53348H28.781ZM25.1083 7.7577C25.1083 5.72934 26.7526 4.08502 28.781 4.08502H33.5917C34.8197 4.08502 35.9664 4.69873 36.6476 5.72047L37.6423 7.21255C37.8694 7.55313 38.2516 7.7577 38.6609 7.7577H43.4717C46.8523 7.7577 49.5928 10.4982 49.5928 13.8788V20C49.5928 23.3806 46.8523 26.1211 43.4717 26.1211H31.2294C27.8488 26.1211 25.1083 23.3806 25.1083 20V7.7577ZM37.3505 12.6546C38.0267 12.6546 38.5748 13.2027 38.5748 13.8788V15.7152H40.4111C41.0872 15.7152 41.6353 16.2633 41.6353 16.9394C41.6353 17.6155 41.0872 18.1636 40.4111 18.1636H38.5748V20C38.5748 20.6761 38.0267 21.2242 37.3505 21.2242C36.6744 21.2242 36.1263 20.6761 36.1263 20V18.1636H34.29C33.6139 18.1636 33.0658 17.6155 33.0658 16.9394C33.0658 16.2633 33.6139 15.7152 34.29 15.7152H36.1263V13.8788C36.1263 13.2027 36.6744 12.6546 37.3505 12.6546Z" fill="#7102FF"/>
<path d="M9.78409 31.2727H10.8409V37.0511C10.8409 37.6477 10.7003 38.1804 10.419 38.6491C10.1406 39.1151 9.74716 39.483 9.23864 39.7528C8.73011 40.0199 8.13352 40.1534 7.44886 40.1534C6.7642 40.1534 6.16761 40.0199 5.65909 39.7528C5.15057 39.483 4.75568 39.1151 4.47443 38.6491C4.19602 38.1804 4.05682 37.6477 4.05682 37.0511V31.2727H5.11364V36.9659C5.11364 37.392 5.20739 37.7713 5.39489 38.1037C5.58239 38.4332 5.84943 38.6932 6.19602 38.8835C6.54545 39.071 6.96307 39.1648 7.44886 39.1648C7.93466 39.1648 8.35227 39.071 8.7017 38.8835C9.05114 38.6932 9.31818 38.4332 9.50284 38.1037C9.69034 37.7713 9.78409 37.392 9.78409 36.9659V31.2727ZM12.815 42.4545V33.4545H13.7866V34.4943H13.9059C13.9798 34.3807 14.082 34.2358 14.2127 34.0597C14.3462 33.8807 14.5366 33.7216 14.7837 33.5824C15.0337 33.4403 15.3718 33.3693 15.7979 33.3693C16.3491 33.3693 16.8349 33.5071 17.2553 33.7827C17.6758 34.0582 18.0039 34.4489 18.2397 34.9545C18.4755 35.4602 18.5934 36.0568 18.5934 36.7443C18.5934 37.4375 18.4755 38.0384 18.2397 38.5469C18.0039 39.0526 17.6772 39.4446 17.2596 39.723C16.842 39.9986 16.3604 40.1364 15.815 40.1364C15.3945 40.1364 15.0579 40.0668 14.805 39.9276C14.5522 39.7855 14.3576 39.625 14.2212 39.446C14.0849 39.2642 13.9798 39.1136 13.9059 38.9943H13.8207V42.4545H12.815ZM13.8036 36.7273C13.8036 37.2216 13.8761 37.6577 14.021 38.0355C14.1658 38.4105 14.3775 38.7045 14.6559 38.9176C14.9343 39.1278 15.2752 39.233 15.6786 39.233C16.0991 39.233 16.4499 39.1222 16.7312 38.9006C17.0153 38.6761 17.2283 38.375 17.3704 37.9972C17.5153 37.6165 17.5877 37.1932 17.5877 36.7273C17.5877 36.267 17.5167 35.8523 17.3746 35.483C17.2354 35.1108 17.0238 34.8168 16.7397 34.6009C16.4585 34.3821 16.1048 34.2727 15.6786 34.2727C15.2695 34.2727 14.9258 34.3764 14.6474 34.5838C14.369 34.7884 14.1587 35.0753 14.0167 35.4446C13.8746 35.8111 13.8036 36.2386 13.8036 36.7273ZM21.1332 31.2727V40H20.1275V31.2727H21.1332ZM25.6342 40.1364C25.0433 40.1364 24.5249 39.9957 24.0788 39.7145C23.6357 39.4332 23.2891 39.0398 23.0391 38.5341C22.7919 38.0284 22.6683 37.4375 22.6683 36.7614C22.6683 36.0795 22.7919 35.4844 23.0391 34.9759C23.2891 34.4673 23.6357 34.0724 24.0788 33.7912C24.5249 33.5099 25.0433 33.3693 25.6342 33.3693C26.2251 33.3693 26.7422 33.5099 27.1854 33.7912C27.6314 34.0724 27.978 34.4673 28.2251 34.9759C28.4751 35.4844 28.6001 36.0795 28.6001 36.7614C28.6001 37.4375 28.4751 38.0284 28.2251 38.5341C27.978 39.0398 27.6314 39.4332 27.1854 39.7145C26.7422 39.9957 26.2251 40.1364 25.6342 40.1364ZM25.6342 39.233C26.0831 39.233 26.4524 39.1179 26.7422 38.8878C27.032 38.6577 27.2464 38.3551 27.3857 37.9801C27.5249 37.6051 27.5945 37.1989 27.5945 36.7614C27.5945 36.3239 27.5249 35.9162 27.3857 35.5384C27.2464 35.1605 27.032 34.8551 26.7422 34.6222C26.4524 34.3892 26.0831 34.2727 25.6342 34.2727C25.1854 34.2727 24.8161 34.3892 24.5263 34.6222C24.2365 34.8551 24.022 35.1605 23.8828 35.5384C23.7436 35.9162 23.674 36.3239 23.674 36.7614C23.674 37.1989 23.7436 37.6051 23.8828 37.9801C24.022 38.3551 24.2365 38.6577 24.5263 38.8878C24.8161 39.1179 25.1854 39.233 25.6342 39.233ZM32.0614 40.1534C31.6467 40.1534 31.2702 40.0753 30.9322 39.919C30.5941 39.7599 30.3256 39.5312 30.1268 39.233C29.9279 38.9318 29.8285 38.5682 29.8285 38.142C29.8285 37.767 29.9023 37.4631 30.0501 37.2301C30.1978 36.9943 30.3952 36.8097 30.6424 36.6761C30.8896 36.5426 31.1623 36.4432 31.4606 36.3778C31.7617 36.3097 32.0643 36.2557 32.3683 36.2159C32.766 36.1648 33.0884 36.1264 33.3356 36.1009C33.5856 36.0724 33.7674 36.0256 33.881 35.9602C33.9975 35.8949 34.0558 35.7812 34.0558 35.6193V35.5852C34.0558 35.1648 33.9407 34.8381 33.7106 34.6051C33.4833 34.3722 33.1381 34.2557 32.6751 34.2557C32.195 34.2557 31.8185 34.3608 31.5458 34.571C31.2731 34.7812 31.0813 35.0057 30.9705 35.2443L30.016 34.9034C30.1864 34.5057 30.4137 34.196 30.6978 33.9744C30.9847 33.75 31.2972 33.5937 31.6353 33.5057C31.9762 33.4148 32.3114 33.3693 32.641 33.3693C32.8512 33.3693 33.0927 33.3949 33.3654 33.446C33.641 33.4943 33.9066 33.5952 34.1623 33.7486C34.4208 33.902 34.6353 34.1335 34.8058 34.4432C34.9762 34.7528 35.0614 35.1676 35.0614 35.6875V40H34.0558V39.1136H34.0046C33.9364 39.2557 33.8228 39.4077 33.6637 39.5696C33.5046 39.7315 33.293 39.8693 33.0288 39.983C32.7646 40.0966 32.4421 40.1534 32.0614 40.1534ZM32.2148 39.25C32.6126 39.25 32.9478 39.1719 33.2205 39.0156C33.4961 38.8594 33.7035 38.6577 33.8427 38.4105C33.9847 38.1634 34.0558 37.9034 34.0558 37.6307V36.7102C34.0131 36.7614 33.9194 36.8082 33.7745 36.8509C33.6325 36.8906 33.4677 36.9261 33.2802 36.9574C33.0955 36.9858 32.9151 37.0114 32.739 37.0341C32.5657 37.054 32.4251 37.071 32.3171 37.0852C32.0558 37.1193 31.8114 37.1747 31.5842 37.2514C31.3597 37.3253 31.1779 37.4375 31.0387 37.5881C30.9023 37.7358 30.8342 37.9375 30.8342 38.1932C30.8342 38.5426 30.9634 38.8068 31.2219 38.9858C31.4833 39.1619 31.8143 39.25 32.2148 39.25ZM39.3686 40.1364C38.8232 40.1364 38.3416 39.9986 37.924 39.723C37.5064 39.4446 37.1797 39.0526 36.9439 38.5469C36.7081 38.0384 36.5902 37.4375 36.5902 36.7443C36.5902 36.0568 36.7081 35.4602 36.9439 34.9545C37.1797 34.4489 37.5078 34.0582 37.9283 33.7827C38.3487 33.5071 38.8345 33.3693 39.3857 33.3693C39.8118 33.3693 40.1484 33.4403 40.3956 33.5824C40.6456 33.7216 40.8359 33.8807 40.9666 34.0597C41.1001 34.2358 41.2038 34.3807 41.2777 34.4943H41.3629V31.2727H42.3686V40H41.397V38.9943H41.2777C41.2038 39.1136 41.0987 39.2642 40.9624 39.446C40.826 39.625 40.6314 39.7855 40.3786 39.9276C40.1257 40.0668 39.7891 40.1364 39.3686 40.1364ZM39.505 39.233C39.9084 39.233 40.2493 39.1278 40.5277 38.9176C40.8061 38.7045 41.0178 38.4105 41.1626 38.0355C41.3075 37.6577 41.38 37.2216 41.38 36.7273C41.38 36.2386 41.3089 35.8111 41.1669 35.4446C41.0249 35.0753 40.8146 34.7884 40.5362 34.5838C40.2578 34.3764 39.9141 34.2727 39.505 34.2727C39.0788 34.2727 38.7237 34.3821 38.4396 34.6009C38.1584 34.8168 37.9467 35.1108 37.8047 35.483C37.6655 35.8523 37.5959 36.267 37.5959 36.7273C37.5959 37.1932 37.6669 37.6165 37.8089 37.9972C37.9538 38.375 38.1669 38.6761 38.4482 38.9006C38.7322 39.1222 39.0845 39.233 39.505 39.233ZM50.6399 33.4545V34.3068H47.1115V33.4545H50.6399ZM48.1683 40V32.5511C48.1683 32.1761 48.2564 31.8636 48.4325 31.6136C48.6087 31.3636 48.8374 31.1761 49.1186 31.0511C49.3999 30.9261 49.6967 30.8636 50.0092 30.8636C50.2564 30.8636 50.4581 30.8835 50.6143 30.9233C50.7706 30.9631 50.8871 31 50.9638 31.0341L50.674 31.9034C50.6229 31.8864 50.5518 31.8651 50.4609 31.8395C50.3729 31.8139 50.2564 31.8011 50.1115 31.8011C49.7791 31.8011 49.5391 31.8849 49.3913 32.0526C49.2464 32.2202 49.174 32.4659 49.174 32.7898V40H48.1683ZM52.0494 40V33.4545H53.055V40H52.0494ZM52.5607 32.3636C52.3647 32.3636 52.1957 32.2969 52.0536 32.1634C51.9144 32.0298 51.8448 31.8693 51.8448 31.6818C51.8448 31.4943 51.9144 31.3338 52.0536 31.2003C52.1957 31.0668 52.3647 31 52.5607 31C52.7567 31 52.9244 31.0668 53.0636 31.2003C53.2056 31.3338 53.2766 31.4943 53.2766 31.6818C53.2766 31.8693 53.2056 32.0298 53.0636 32.1634C52.9244 32.2969 52.7567 32.3636 52.5607 32.3636ZM55.9027 31.2727V40H54.897V31.2727H55.9027ZM60.489 40.1364C59.8583 40.1364 59.3143 39.9972 58.8569 39.7188C58.4023 39.4375 58.0515 39.0455 57.8043 38.5426C57.56 38.0369 57.4379 37.4489 57.4379 36.7784C57.4379 36.108 57.56 35.517 57.8043 35.0057C58.0515 34.4915 58.3952 34.0909 58.8356 33.804C59.2788 33.5142 59.7958 33.3693 60.3867 33.3693C60.7276 33.3693 61.0643 33.4261 61.3967 33.5398C61.729 33.6534 62.0316 33.8381 62.3043 34.0938C62.5771 34.3466 62.7944 34.6818 62.9563 35.0994C63.1183 35.517 63.1992 36.0312 63.1992 36.642V37.0682H58.1538V36.1989H62.1765C62.1765 35.8295 62.1026 35.5 61.9549 35.2102C61.81 34.9205 61.6026 34.6918 61.3327 34.5241C61.0657 34.3565 60.7504 34.2727 60.3867 34.2727C59.9862 34.2727 59.6396 34.3722 59.3469 34.571C59.0572 34.767 58.8342 35.0227 58.6779 35.3381C58.5217 35.6534 58.4435 35.9915 58.4435 36.3523V36.9318C58.4435 37.4261 58.5288 37.8452 58.6992 38.1889C58.8725 38.5298 59.1126 38.7898 59.4194 38.9688C59.7262 39.1449 60.0827 39.233 60.489 39.233C60.7532 39.233 60.9918 39.196 61.2049 39.1222C61.4208 39.0455 61.6069 38.9318 61.7631 38.7812C61.9194 38.6278 62.0401 38.4375 62.1254 38.2102L63.0969 38.483C62.9947 38.8125 62.8228 39.1023 62.5813 39.3523C62.3398 39.5994 62.0415 39.7926 61.6864 39.9318C61.3313 40.0682 60.9322 40.1364 60.489 40.1364ZM69.3654 34.9205L68.462 35.1761C68.4052 35.0256 68.3214 34.8793 68.2106 34.7372C68.1026 34.5923 67.9549 34.473 67.7674 34.3793C67.5799 34.2855 67.3398 34.2386 67.0472 34.2386C66.6467 34.2386 66.3129 34.331 66.0458 34.5156C65.7816 34.6974 65.6495 34.929 65.6495 35.2102C65.6495 35.4602 65.7404 35.6577 65.9222 35.8026C66.104 35.9474 66.3881 36.0682 66.7745 36.1648L67.7461 36.4034C68.3313 36.5455 68.7674 36.7628 69.0543 37.0554C69.3413 37.3452 69.4847 37.7187 69.4847 38.1761C69.4847 38.5511 69.3768 38.8864 69.1609 39.1818C68.9478 39.4773 68.6495 39.7102 68.266 39.8807C67.8825 40.0511 67.4364 40.1364 66.9279 40.1364C66.2603 40.1364 65.7077 39.9915 65.2702 39.7017C64.8327 39.4119 64.5558 38.9886 64.4393 38.4318L65.3938 38.1932C65.4847 38.5455 65.6566 38.8097 65.9094 38.9858C66.1651 39.1619 66.4989 39.25 66.9109 39.25C67.3796 39.25 67.7518 39.1506 68.0273 38.9517C68.3058 38.75 68.445 38.5085 68.445 38.2273C68.445 38 68.3654 37.8097 68.2063 37.6562C68.0472 37.5 67.8029 37.3835 67.4734 37.3068L66.3825 37.0511C65.783 36.9091 65.3427 36.6889 65.0614 36.3906C64.783 36.0895 64.6438 35.7131 64.6438 35.2614C64.6438 34.892 64.7475 34.5653 64.9549 34.2812C65.1651 33.9972 65.4506 33.7741 65.8114 33.6122C66.1751 33.4503 66.587 33.3693 67.0472 33.3693C67.695 33.3693 68.2035 33.5114 68.5728 33.7955C68.945 34.0795 69.2092 34.4545 69.3654 34.9205Z" fill="#7102FF"/>
</g>
<defs>
<filter id="filter0_d_130_27" x="0.0568237" y="0.412354" width="73.4279" height="50.0422" filterUnits="userSpaceOnUse" color-interpolation-filters="sRGB">
<feFlood flood-opacity="0" result="BackgroundImageFix"/>
<feColorMatrix in="SourceAlpha" type="matrix" values="0 0 0 0 0 0 0 0 0 0 0 0 0 0 0 0 0 0 127 0" result="hardAlpha"/>
<feOffset dy="4"/>
<feGaussianBlur stdDeviation="2"/>
<feComposite in2="hardAlpha" operator="out"/>
<feColorMatrix type="matrix" values="0 0 0 0 0 0 0 0 0 0 0 0 0 0 0 0 0 0 0.25 0"/>
<feBlend mode="normal" in2="BackgroundImageFix" result="effect1_dropShadow_130_27"/>
<feBlend mode="normal" in="SourceGraphic" in2="effect1_dropShadow_130_27" result="shape"/>
</filter>
</defs>
</svg>
